#VRML V2.0 utf8
Shape { appearance Appearance { material Material { diffuseColor 0.5 0.51 0.53 specularColor 0.3 0.3 0.3 shininess 0.4 } } geometry IndexedFaceSet { solid FALSE coord Coordinate { point [ -0.3937 2.5591 -2.0079, 7.4803 2.5591 -2.0079, 7.4803 6.4961 -2.0079, -0.3937 6.4961 -2.0079, -0.3937 2.5591 -0.4331, 7.4803 2.5591 -0.4331, 7.4803 6.4961 -0.4331, -0.3937 6.4961 -0.4331 ] } coordIndex [ 0 2 1 -1, 0 3 2 -1, 4 5 6 -1, 4 6 7 -1, 0 1 5 -1, 0 5 4 -1, 1 2 6 -1, 1 6 5 -1, 2 3 7 -1, 2 7 6 -1, 3 0 4 -1, 3 4 7 -1 ] } }
Shape { appearance Appearance { material Material { diffuseColor 0.9 0.72 0.15 specularColor 0.3 0.3 0.3 shininess 0.4 } } geometry IndexedFaceSet { solid FALSE coord Coordinate { point [ -0.3937 2.5591 -2.0276, 0.7874 2.5591 -2.0276, 0.7874 6.4961 -2.0276, -0.3937 6.4961 -2.0276, -0.3937 2.5591 -0.4134, 0.7874 2.5591 -0.4134, 0.7874 6.4961 -0.4134, -0.3937 6.4961 -0.4134 ] } coordIndex [ 0 2 1 -1, 0 3 2 -1, 4 5 6 -1, 4 6 7 -1, 0 1 5 -1, 0 5 4 -1, 1 2 6 -1, 1 6 5 -1, 2 3 7 -1, 2 7 6 -1, 3 0 4 -1, 3 4 7 -1 ] } }
Shape { appearance Appearance { material Material { diffuseColor 0.75 0.1 0.1 specularColor 0.3 0.3 0.3 shininess 0.4 } } geometry IndexedFaceSet { solid FALSE coord Coordinate { point [ -3.1102 2.5197 -0.8661, -0.3937 2.5197 -0.8661, -0.3937 2.7559 -0.8661, -3.1102 2.7559 -0.8661, -3.1102 2.5197 -0.6299, -0.3937 2.5197 -0.6299, -0.3937 2.7559 -0.6299, -3.1102 2.7559 -0.6299 ] } coordIndex [ 0 2 1 -1, 0 3 2 -1, 4 5 6 -1, 4 6 7 -1, 0 1 5 -1, 0 5 4 -1, 1 2 6 -1, 1 6 5 -1, 2 3 7 -1, 2 7 6 -1, 3 0 4 -1, 3 4 7 -1 ] } }
Shape { appearance Appearance { material Material { diffuseColor 0.75 0.1 0.1 specularColor 0.3 0.3 0.3 shininess 0.4 } } geometry IndexedFaceSet { solid FALSE coord Coordinate { point [ -3.1102 2.5197 -0.8661, -2.8740 2.5197 -0.8661, -2.8740 2.9921 -0.8661, -3.1102 2.9921 -0.8661, -3.1102 2.5197 -0.6299, -2.8740 2.5197 -0.6299, -2.8740 2.9921 -0.6299, -3.1102 2.9921 -0.6299 ] } coordIndex [ 0 2 1 -1, 0 3 2 -1, 4 5 6 -1, 4 6 7 -1, 0 1 5 -1, 0 5 4 -1, 1 2 6 -1, 1 6 5 -1, 2 3 7 -1, 2 7 6 -1, 3 0 4 -1, 3 4 7 -1 ] } }
Shape { appearance Appearance { material Material { diffuseColor 0.08 0.08 0.09 specularColor 0.3 0.3 0.3 shininess 0.4 } } geometry IndexedFaceSet { solid FALSE coord Coordinate { point [ -1.7717 3.1496 -0.8661, -0.3937 3.1496 -0.8661, -0.3937 3.3858 -0.8661, -1.7717 3.3858 -0.8661, -1.7717 3.1496 -0.6299, -0.3937 3.1496 -0.6299, -0.3937 3.3858 -0.6299, -1.7717 3.3858 -0.6299 ] } coordIndex [ 0 2 1 -1, 0 3 2 -1, 4 5 6 -1, 4 6 7 -1, 0 1 5 -1, 0 5 4 -1, 1 2 6 -1, 1 6 5 -1, 2 3 7 -1, 2 7 6 -1, 3 0 4 -1, 3 4 7 -1 ] } }
Shape { appearance Appearance { material Material { diffuseColor 0.08 0.08 0.09 specularColor 0.3 0.3 0.3 shininess 0.4 } } geometry IndexedFaceSet { solid FALSE coord Coordinate { point [ -1.7717 2.9921 -0.8661, -1.5354 2.9921 -0.8661, -1.5354 3.3858 -0.8661, -1.7717 3.3858 -0.8661, -1.7717 2.9921 -0.6299, -1.5354 2.9921 -0.6299, -1.5354 3.3858 -0.6299, -1.7717 3.3858 -0.6299 ] } coordIndex [ 0 2 1 -1, 0 3 2 -1, 4 5 6 -1, 4 6 7 -1, 0 1 5 -1, 0 5 4 -1, 1 2 6 -1, 1 6 5 -1, 2 3 7 -1, 2 7 6 -1, 3 0 4 -1, 3 4 7 -1 ] } }
