#VRML V2.0 utf8
Shape { appearance Appearance { material Material { diffuseColor 0.5 0.51 0.53 specularColor 0.3 0.3 0.3 shininess 0.4 } } geometry IndexedFaceSet { solid FALSE coord Coordinate { point [ -2.7559 3.8583 0.0000, -1.2992 3.8583 0.0000, -1.2992 7.2047 0.0000, -2.7559 7.2047 0.0000, -2.7559 3.8583 1.3780, -1.2992 3.8583 1.3780, -1.2992 7.2047 1.3780, -2.7559 7.2047 1.3780 ] } coordIndex [ 0 2 1 -1, 0 3 2 -1, 4 5 6 -1, 4 6 7 -1, 0 1 5 -1, 0 5 4 -1, 1 2 6 -1, 1 6 5 -1, 2 3 7 -1, 2 7 6 -1, 3 0 4 -1, 3 4 7 -1 ] } }
Shape { appearance Appearance { material Material { diffuseColor 0.08 0.08 0.09 specularColor 0.3 0.3 0.3 shininess 0.4 } } geometry IndexedFaceSet { solid FALSE coord Coordinate { point [ -2.3228 5.9055 1.3780, -1.7323 5.9055 1.3780, -1.7323 6.6929 1.3780, -2.3228 6.6929 1.3780, -2.3228 5.9055 2.5591, -1.7323 5.9055 2.5591, -1.7323 6.6929 2.5591, -2.3228 6.6929 2.5591 ] } coordIndex [ 0 2 1 -1, 0 3 2 -1, 4 5 6 -1, 4 6 7 -1, 0 1 5 -1, 0 5 4 -1, 1 2 6 -1, 1 6 5 -1, 2 3 7 -1, 2 7 6 -1, 3 0 4 -1, 3 4 7 -1 ] } }
