#VRML V2.0 utf8
Shape { appearance Appearance { material Material { diffuseColor 0.08 0.08 0.09 specularColor 0.3 0.3 0.3 shininess 0.4 } } geometry IndexedFaceSet { solid FALSE coord Coordinate { point [ 0.0000 0.0394 0.0000, 7.0079 0.0394 0.0000, 7.0079 8.2874 0.0000, 0.0000 8.2874 0.0000, 0.0000 0.0394 0.3937, 7.0079 0.0394 0.3937, 7.0079 8.2874 0.3937, 0.0000 8.2874 0.3937 ] } coordIndex [ 0 2 1 -1, 0 3 2 -1, 4 5 6 -1, 4 6 7 -1, 0 1 5 -1, 0 5 4 -1, 1 2 6 -1, 1 6 5 -1, 2 3 7 -1, 2 7 6 -1, 3 0 4 -1, 3 4 7 -1 ] } }
Shape { appearance Appearance { material Material { diffuseColor 0.5 0.51 0.53 specularColor 0.3 0.3 0.3 shininess 0.4 } } geometry IndexedFaceSet { solid FALSE coord Coordinate { point [ 1.7323 5.9449 0.3937, 5.2756 5.9449 0.3937, 5.2756 8.8189 0.3937, 1.7323 8.8189 0.3937, 1.7323 5.9449 1.6535, 5.2756 5.9449 1.6535, 5.2756 8.8189 1.6535, 1.7323 8.8189 1.6535 ] } coordIndex [ 0 2 1 -1, 0 3 2 -1, 4 5 6 -1, 4 6 7 -1, 0 1 5 -1, 0 5 4 -1, 1 2 6 -1, 1 6 5 -1, 2 3 7 -1, 2 7 6 -1, 3 0 4 -1, 3 4 7 -1 ] } }
Shape { appearance Appearance { material Material { diffuseColor 0.5 0.51 0.53 specularColor 0.3 0.3 0.3 shininess 0.4 } } geometry IndexedFaceSet { solid FALSE coord Coordinate { point [ 1.0236 1.7323 0.3937, 5.9843 1.7323 0.3937, 5.9843 5.6693 0.3937, 1.0236 5.6693 0.3937, 1.0236 1.7323 1.0630, 5.9843 1.7323 1.0630, 5.9843 5.6693 1.0630, 1.0236 5.6693 1.0630 ] } coordIndex [ 0 2 1 -1, 0 3 2 -1, 4 5 6 -1, 4 6 7 -1, 0 1 5 -1, 0 5 4 -1, 1 2 6 -1, 1 6 5 -1, 2 3 7 -1, 2 7 6 -1, 3 0 4 -1, 3 4 7 -1 ] } }
Shape { appearance Appearance { material Material { diffuseColor 0.25 0.4 0.6 specularColor 0.3 0.3 0.3 shininess 0.4 } } geometry IndexedFaceSet { solid FALSE coord Coordinate { point [ 4.3307 0.5512 0.3937, 6.0630 0.5512 0.3937, 6.0630 1.1811 0.3937, 4.3307 1.1811 0.3937, 4.3307 0.5512 0.6693, 6.0630 0.5512 0.6693, 6.0630 1.1811 0.6693, 4.3307 1.1811 0.6693 ] } coordIndex [ 0 2 1 -1, 0 3 2 -1, 4 5 6 -1, 4 6 7 -1, 0 1 5 -1, 0 5 4 -1, 1 2 6 -1, 1 6 5 -1, 2 3 7 -1, 2 7 6 -1, 3 0 4 -1, 3 4 7 -1 ] } }
Shape { appearance Appearance { material Material { diffuseColor 0.83 0.66 0.22 specularColor 0.3 0.3 0.3 shininess 0.4 } } geometry IndexedFaceSet { solid FALSE coord Coordinate { point [ 0.6299 0.4724 0.3937, 1.8110 0.4724 0.3937, 1.8110 1.4173 0.3937, 0.6299 1.4173 0.3937, 0.6299 0.4724 0.7874, 1.8110 0.4724 0.7874, 1.8110 1.4173 0.7874, 0.6299 1.4173 0.7874 ] } coordIndex [ 0 2 1 -1, 0 3 2 -1, 4 5 6 -1, 4 6 7 -1, 0 1 5 -1, 0 5 4 -1, 1 2 6 -1, 1 6 5 -1, 2 3 7 -1, 2 7 6 -1, 3 0 4 -1, 3 4 7 -1 ] } }
Shape { appearance Appearance { material Material { diffuseColor 0.2 0.2 0.22 specularColor 0.3 0.3 0.3 shininess 0.4 } } geometry IndexedFaceSet { solid FALSE coord Coordinate { point [ 2.3622 0.4331 0.3937, 3.3858 0.4331 0.3937, 3.3858 1.3780 0.3937, 2.3622 1.3780 0.3937, 2.3622 0.4331 0.7087, 3.3858 0.4331 0.7087, 3.3858 1.3780 0.7087, 2.3622 1.3780 0.7087 ] } coordIndex [ 0 2 1 -1, 0 3 2 -1, 4 5 6 -1, 4 6 7 -1, 0 1 5 -1, 0 5 4 -1, 1 2 6 -1, 1 6 5 -1, 2 3 7 -1, 2 7 6 -1, 3 0 4 -1, 3 4 7 -1 ] } }
Shape { appearance Appearance { material Material { diffuseColor 0.2 0.2 0.22 specularColor 0.3 0.3 0.3 shininess 0.4 } } geometry IndexedFaceSet { solid FALSE coord Coordinate { point [ 5.7480 6.2205 0.3937, 6.5354 6.2205 0.3937, 6.5354 6.9291 0.3937, 5.7480 6.9291 0.3937, 5.7480 6.2205 0.7480, 6.5354 6.2205 0.7480, 6.5354 6.9291 0.7480, 5.7480 6.9291 0.7480 ] } coordIndex [ 0 2 1 -1, 0 3 2 -1, 4 5 6 -1, 4 6 7 -1, 0 1 5 -1, 0 5 4 -1, 1 2 6 -1, 1 6 5 -1, 2 3 7 -1, 2 7 6 -1, 3 0 4 -1, 3 4 7 -1 ] } }
