%TF.GenerationSoftware,KiCad,Pcbnew,10.0.4*%
%TF.CreationDate,2026-10-01T13:38:39+08:00*%
%TF.ProjectId,dogmood_carrier,646f676d-6f6f-4645-9f63-617272696572,rev?*%
%TF.SameCoordinates,Original*%
%TF.FileFunction,Legend,Top*%
%TF.FilePolarity,Positive*%
%FSLAX46Y46*%
G04 Gerber Fmt 4.6, Leading zero omitted, Abs format (unit mm)*
G04 Created by KiCad (PCBNEW 10.0.4) date 2026-10-01 13:38:39*
%MOMM*%
%LPD*%
G01*
G04 APERTURE LIST*
%ADD10C,0.120000*%
%ADD11C,0.180000*%
G04 APERTURE END LIST*
D10*
X-9036144Y16104762D02*
X-9036144Y16257143D01*
X-9036144Y16257143D02*
X-8998049Y16333333D01*
X-8998049Y16333333D02*
X-8921859Y16409524D01*
X-8921859Y16409524D02*
X-8769478Y16447619D01*
X-8769478Y16447619D02*
X-8502811Y16447619D01*
X-8502811Y16447619D02*
X-8350430Y16409524D01*
X-8350430Y16409524D02*
X-8274240Y16333333D01*
X-8274240Y16333333D02*
X-8236144Y16257143D01*
X-8236144Y16257143D02*
X-8236144Y16104762D01*
X-8236144Y16104762D02*
X-8274240Y16028571D01*
X-8274240Y16028571D02*
X-8350430Y15952381D01*
X-8350430Y15952381D02*
X-8502811Y15914285D01*
X-8502811Y15914285D02*
X-8769478Y15914285D01*
X-8769478Y15914285D02*
X-8921859Y15952381D01*
X-8921859Y15952381D02*
X-8998049Y16028571D01*
X-8998049Y16028571D02*
X-9036144Y16104762D01*
X-8236144Y16790476D02*
X-9036144Y16790476D01*
X-9036144Y16790476D02*
X-8236144Y17247619D01*
X-8236144Y17247619D02*
X-9036144Y17247619D01*
X-9036144Y11058096D02*
X-9036144Y11210477D01*
X-9036144Y11210477D02*
X-8998049Y11286667D01*
X-8998049Y11286667D02*
X-8921859Y11362858D01*
X-8921859Y11362858D02*
X-8769478Y11400953D01*
X-8769478Y11400953D02*
X-8502811Y11400953D01*
X-8502811Y11400953D02*
X-8350430Y11362858D01*
X-8350430Y11362858D02*
X-8274240Y11286667D01*
X-8274240Y11286667D02*
X-8236144Y11210477D01*
X-8236144Y11210477D02*
X-8236144Y11058096D01*
X-8236144Y11058096D02*
X-8274240Y10981905D01*
X-8274240Y10981905D02*
X-8350430Y10905715D01*
X-8350430Y10905715D02*
X-8502811Y10867619D01*
X-8502811Y10867619D02*
X-8769478Y10867619D01*
X-8769478Y10867619D02*
X-8921859Y10905715D01*
X-8921859Y10905715D02*
X-8998049Y10981905D01*
X-8998049Y10981905D02*
X-9036144Y11058096D01*
X-8655192Y12010476D02*
X-8655192Y11743810D01*
X-8236144Y11743810D02*
X-9036144Y11743810D01*
X-9036144Y11743810D02*
X-9036144Y12124762D01*
X-8655192Y12696190D02*
X-8655192Y12429524D01*
X-8236144Y12429524D02*
X-9036144Y12429524D01*
X-9036144Y12429524D02*
X-9036144Y12810476D01*
D11*
X-8057142Y5511360D02*
X-7142857Y5511360D01*
X-7599999Y5054217D02*
X-7599999Y5968502D01*
X-4657142Y5511360D02*
X-3742857Y5511360D01*
M02*
