%TF.GenerationSoftware,KiCad,Pcbnew,10.0.4*%
%TF.CreationDate,2026-10-01T13:38:39+08:00*%
%TF.ProjectId,dogmood_carrier,646f676d-6f6f-4645-9f63-617272696572,rev?*%
%TF.SameCoordinates,Original*%
%TF.FileFunction,Legend,Bot*%
%TF.FilePolarity,Positive*%
%FSLAX46Y46*%
G04 Gerber Fmt 4.6, Leading zero omitted, Abs format (unit mm)*
G04 Created by KiCad (PCBNEW 10.0.4) date 2026-10-01 13:38:39*
%MOMM*%
%LPD*%
G01*
G04 APERTURE LIST*
%ADD10C,0.120000*%
%ADD11C,0.135000*%
G04 APERTURE END LIST*
D10*
X-8359523Y18848049D02*
X-8283333Y18886144D01*
X-8283333Y18886144D02*
X-8169047Y18886144D01*
X-8169047Y18886144D02*
X-8054761Y18848049D01*
X-8054761Y18848049D02*
X-7978571Y18771859D01*
X-7978571Y18771859D02*
X-7940476Y18695668D01*
X-7940476Y18695668D02*
X-7902380Y18543287D01*
X-7902380Y18543287D02*
X-7902380Y18429001D01*
X-7902380Y18429001D02*
X-7940476Y18276620D01*
X-7940476Y18276620D02*
X-7978571Y18200430D01*
X-7978571Y18200430D02*
X-8054761Y18124240D01*
X-8054761Y18124240D02*
X-8169047Y18086144D01*
X-8169047Y18086144D02*
X-8245238Y18086144D01*
X-8245238Y18086144D02*
X-8359523Y18124240D01*
X-8359523Y18124240D02*
X-8397619Y18162335D01*
X-8397619Y18162335D02*
X-8397619Y18429001D01*
X-8397619Y18429001D02*
X-8245238Y18429001D01*
X-6514285Y5655192D02*
X-6628571Y5617097D01*
X-6628571Y5617097D02*
X-6666666Y5579001D01*
X-6666666Y5579001D02*
X-6704762Y5502811D01*
X-6704762Y5502811D02*
X-6704762Y5388525D01*
X-6704762Y5388525D02*
X-6666666Y5312335D01*
X-6666666Y5312335D02*
X-6628571Y5274240D01*
X-6628571Y5274240D02*
X-6552381Y5236144D01*
X-6552381Y5236144D02*
X-6247619Y5236144D01*
X-6247619Y5236144D02*
X-6247619Y6036144D01*
X-6247619Y6036144D02*
X-6514285Y6036144D01*
X-6514285Y6036144D02*
X-6590476Y5998049D01*
X-6590476Y5998049D02*
X-6628571Y5959954D01*
X-6628571Y5959954D02*
X-6666666Y5883763D01*
X-6666666Y5883763D02*
X-6666666Y5807573D01*
X-6666666Y5807573D02*
X-6628571Y5731382D01*
X-6628571Y5731382D02*
X-6590476Y5693287D01*
X-6590476Y5693287D02*
X-6514285Y5655192D01*
X-6514285Y5655192D02*
X-6247619Y5655192D01*
X-7009523Y5464716D02*
X-7390476Y5464716D01*
X-6933333Y5236144D02*
X-7200000Y6036144D01*
X-7200000Y6036144D02*
X-7466666Y5236144D01*
X-7619047Y6036144D02*
X-8076190Y6036144D01*
X-7847618Y5236144D02*
X-7847618Y6036144D01*
X-8342857Y5540906D02*
X-8952381Y5540906D01*
X-8647619Y5236144D02*
X-8647619Y5845668D01*
X-5883333Y18886144D02*
X-6378571Y18886144D01*
X-6378571Y18886144D02*
X-6111905Y18581382D01*
X-6111905Y18581382D02*
X-6226190Y18581382D01*
X-6226190Y18581382D02*
X-6302381Y18543287D01*
X-6302381Y18543287D02*
X-6340476Y18505192D01*
X-6340476Y18505192D02*
X-6378571Y18429001D01*
X-6378571Y18429001D02*
X-6378571Y18238525D01*
X-6378571Y18238525D02*
X-6340476Y18162335D01*
X-6340476Y18162335D02*
X-6302381Y18124240D01*
X-6302381Y18124240D02*
X-6226190Y18086144D01*
X-6226190Y18086144D02*
X-5997619Y18086144D01*
X-5997619Y18086144D02*
X-5921428Y18124240D01*
X-5921428Y18124240D02*
X-5883333Y18162335D01*
X-4397619Y18086144D02*
X-4016667Y18086144D01*
X-4016667Y18086144D02*
X-4016667Y18886144D01*
X-2614285Y5655192D02*
X-2728571Y5617097D01*
X-2728571Y5617097D02*
X-2766666Y5579001D01*
X-2766666Y5579001D02*
X-2804762Y5502811D01*
X-2804762Y5502811D02*
X-2804762Y5388525D01*
X-2804762Y5388525D02*
X-2766666Y5312335D01*
X-2766666Y5312335D02*
X-2728571Y5274240D01*
X-2728571Y5274240D02*
X-2652381Y5236144D01*
X-2652381Y5236144D02*
X-2347619Y5236144D01*
X-2347619Y5236144D02*
X-2347619Y6036144D01*
X-2347619Y6036144D02*
X-2614285Y6036144D01*
X-2614285Y6036144D02*
X-2690476Y5998049D01*
X-2690476Y5998049D02*
X-2728571Y5959954D01*
X-2728571Y5959954D02*
X-2766666Y5883763D01*
X-2766666Y5883763D02*
X-2766666Y5807573D01*
X-2766666Y5807573D02*
X-2728571Y5731382D01*
X-2728571Y5731382D02*
X-2690476Y5693287D01*
X-2690476Y5693287D02*
X-2614285Y5655192D01*
X-2614285Y5655192D02*
X-2347619Y5655192D01*
X-3109523Y5464716D02*
X-3490476Y5464716D01*
X-3033333Y5236144D02*
X-3300000Y6036144D01*
X-3300000Y6036144D02*
X-3566666Y5236144D01*
X-3719047Y6036144D02*
X-4176190Y6036144D01*
X-3947618Y5236144D02*
X-3947618Y6036144D01*
X-4442857Y5540906D02*
X-5052381Y5540906D01*
X-1959523Y18314716D02*
X-2340476Y18314716D01*
X-1883333Y18086144D02*
X-2150000Y18886144D01*
X-2150000Y18886144D02*
X-2416666Y18086144D01*
X16285714Y8398049D02*
X16361904Y8436144D01*
X16361904Y8436144D02*
X16476190Y8436144D01*
X16476190Y8436144D02*
X16590476Y8398049D01*
X16590476Y8398049D02*
X16666666Y8321859D01*
X16666666Y8321859D02*
X16704761Y8245668D01*
X16704761Y8245668D02*
X16742857Y8093287D01*
X16742857Y8093287D02*
X16742857Y7979001D01*
X16742857Y7979001D02*
X16704761Y7826620D01*
X16704761Y7826620D02*
X16666666Y7750430D01*
X16666666Y7750430D02*
X16590476Y7674240D01*
X16590476Y7674240D02*
X16476190Y7636144D01*
X16476190Y7636144D02*
X16399999Y7636144D01*
X16399999Y7636144D02*
X16285714Y7674240D01*
X16285714Y7674240D02*
X16247618Y7712335D01*
X16247618Y7712335D02*
X16247618Y7979001D01*
X16247618Y7979001D02*
X16399999Y7979001D01*
X15904761Y8055192D02*
X15295238Y8055192D01*
X15295238Y7826620D02*
X15904761Y7826620D01*
X14495238Y8398049D02*
X14571428Y8436144D01*
X14571428Y8436144D02*
X14685714Y8436144D01*
X14685714Y8436144D02*
X14800000Y8398049D01*
X14800000Y8398049D02*
X14876190Y8321859D01*
X14876190Y8321859D02*
X14914285Y8245668D01*
X14914285Y8245668D02*
X14952381Y8093287D01*
X14952381Y8093287D02*
X14952381Y7979001D01*
X14952381Y7979001D02*
X14914285Y7826620D01*
X14914285Y7826620D02*
X14876190Y7750430D01*
X14876190Y7750430D02*
X14800000Y7674240D01*
X14800000Y7674240D02*
X14685714Y7636144D01*
X14685714Y7636144D02*
X14609523Y7636144D01*
X14609523Y7636144D02*
X14495238Y7674240D01*
X14495238Y7674240D02*
X14457142Y7712335D01*
X14457142Y7712335D02*
X14457142Y7979001D01*
X14457142Y7979001D02*
X14609523Y7979001D01*
X14114285Y7636144D02*
X14114285Y8436144D01*
X14114285Y8436144D02*
X13657142Y7636144D01*
X13657142Y7636144D02*
X13657142Y8436144D01*
X13276190Y7636144D02*
X13276190Y8436144D01*
X13276190Y8436144D02*
X13085714Y8436144D01*
X13085714Y8436144D02*
X12971428Y8398049D01*
X12971428Y8398049D02*
X12895238Y8321859D01*
X12895238Y8321859D02*
X12857143Y8245668D01*
X12857143Y8245668D02*
X12819047Y8093287D01*
X12819047Y8093287D02*
X12819047Y7979001D01*
X12819047Y7979001D02*
X12857143Y7826620D01*
X12857143Y7826620D02*
X12895238Y7750430D01*
X12895238Y7750430D02*
X12971428Y7674240D01*
X12971428Y7674240D02*
X13085714Y7636144D01*
X13085714Y7636144D02*
X13276190Y7636144D01*
X11942857Y8436144D02*
X11447619Y8436144D01*
X11447619Y8436144D02*
X11714285Y8131382D01*
X11714285Y8131382D02*
X11600000Y8131382D01*
X11600000Y8131382D02*
X11523809Y8093287D01*
X11523809Y8093287D02*
X11485714Y8055192D01*
X11485714Y8055192D02*
X11447619Y7979001D01*
X11447619Y7979001D02*
X11447619Y7788525D01*
X11447619Y7788525D02*
X11485714Y7712335D01*
X11485714Y7712335D02*
X11523809Y7674240D01*
X11523809Y7674240D02*
X11600000Y7636144D01*
X11600000Y7636144D02*
X11828571Y7636144D01*
X11828571Y7636144D02*
X11904762Y7674240D01*
X11904762Y7674240D02*
X11942857Y7712335D01*
X11104761Y8055192D02*
X10495238Y8055192D01*
X10495238Y7826620D02*
X11104761Y7826620D01*
X10190476Y8436144D02*
X9695238Y8436144D01*
X9695238Y8436144D02*
X9961904Y8131382D01*
X9961904Y8131382D02*
X9847619Y8131382D01*
X9847619Y8131382D02*
X9771428Y8093287D01*
X9771428Y8093287D02*
X9733333Y8055192D01*
X9733333Y8055192D02*
X9695238Y7979001D01*
X9695238Y7979001D02*
X9695238Y7788525D01*
X9695238Y7788525D02*
X9733333Y7712335D01*
X9733333Y7712335D02*
X9771428Y7674240D01*
X9771428Y7674240D02*
X9847619Y7636144D01*
X9847619Y7636144D02*
X10076190Y7636144D01*
X10076190Y7636144D02*
X10152381Y7674240D01*
X10152381Y7674240D02*
X10190476Y7712335D01*
X9466666Y8436144D02*
X9199999Y7636144D01*
X9199999Y7636144D02*
X8933333Y8436144D01*
X8742857Y8436144D02*
X8247619Y8436144D01*
X8247619Y8436144D02*
X8514285Y8131382D01*
X8514285Y8131382D02*
X8400000Y8131382D01*
X8400000Y8131382D02*
X8323809Y8093287D01*
X8323809Y8093287D02*
X8285714Y8055192D01*
X8285714Y8055192D02*
X8247619Y7979001D01*
X8247619Y7979001D02*
X8247619Y7788525D01*
X8247619Y7788525D02*
X8285714Y7712335D01*
X8285714Y7712335D02*
X8323809Y7674240D01*
X8323809Y7674240D02*
X8400000Y7636144D01*
X8400000Y7636144D02*
X8628571Y7636144D01*
X8628571Y7636144D02*
X8704762Y7674240D01*
X8704762Y7674240D02*
X8742857Y7712335D01*
X6914285Y7636144D02*
X7295237Y7636144D01*
X7295237Y7636144D02*
X7295237Y8436144D01*
X6647618Y8055192D02*
X6038095Y8055192D01*
X6038095Y7826620D02*
X6647618Y7826620D01*
X5695238Y7674240D02*
X5580952Y7636144D01*
X5580952Y7636144D02*
X5390476Y7636144D01*
X5390476Y7636144D02*
X5314285Y7674240D01*
X5314285Y7674240D02*
X5276190Y7712335D01*
X5276190Y7712335D02*
X5238095Y7788525D01*
X5238095Y7788525D02*
X5238095Y7864716D01*
X5238095Y7864716D02*
X5276190Y7940906D01*
X5276190Y7940906D02*
X5314285Y7979001D01*
X5314285Y7979001D02*
X5390476Y8017097D01*
X5390476Y8017097D02*
X5542857Y8055192D01*
X5542857Y8055192D02*
X5619047Y8093287D01*
X5619047Y8093287D02*
X5657142Y8131382D01*
X5657142Y8131382D02*
X5695238Y8207573D01*
X5695238Y8207573D02*
X5695238Y8283763D01*
X5695238Y8283763D02*
X5657142Y8359954D01*
X5657142Y8359954D02*
X5619047Y8398049D01*
X5619047Y8398049D02*
X5542857Y8436144D01*
X5542857Y8436144D02*
X5352380Y8436144D01*
X5352380Y8436144D02*
X5238095Y8398049D01*
X4438094Y7712335D02*
X4476190Y7674240D01*
X4476190Y7674240D02*
X4590475Y7636144D01*
X4590475Y7636144D02*
X4666666Y7636144D01*
X4666666Y7636144D02*
X4780952Y7674240D01*
X4780952Y7674240D02*
X4857142Y7750430D01*
X4857142Y7750430D02*
X4895237Y7826620D01*
X4895237Y7826620D02*
X4933333Y7979001D01*
X4933333Y7979001D02*
X4933333Y8093287D01*
X4933333Y8093287D02*
X4895237Y8245668D01*
X4895237Y8245668D02*
X4857142Y8321859D01*
X4857142Y8321859D02*
X4780952Y8398049D01*
X4780952Y8398049D02*
X4666666Y8436144D01*
X4666666Y8436144D02*
X4590475Y8436144D01*
X4590475Y8436144D02*
X4476190Y8398049D01*
X4476190Y8398049D02*
X4438094Y8359954D01*
X3714285Y7636144D02*
X4095237Y7636144D01*
X4095237Y7636144D02*
X4095237Y8436144D01*
X2876190Y7864716D02*
X2495237Y7864716D01*
X2952380Y7636144D02*
X2685713Y8436144D01*
X2685713Y8436144D02*
X2419047Y7636144D01*
X2152380Y8055192D02*
X1542857Y8055192D01*
X1542857Y7826620D02*
X2152380Y7826620D01*
X1200000Y7674240D02*
X1085714Y7636144D01*
X1085714Y7636144D02*
X895238Y7636144D01*
X895238Y7636144D02*
X819047Y7674240D01*
X819047Y7674240D02*
X780952Y7712335D01*
X780952Y7712335D02*
X742857Y7788525D01*
X742857Y7788525D02*
X742857Y7864716D01*
X742857Y7864716D02*
X780952Y7940906D01*
X780952Y7940906D02*
X819047Y7979001D01*
X819047Y7979001D02*
X895238Y8017097D01*
X895238Y8017097D02*
X1047619Y8055192D01*
X1047619Y8055192D02*
X1123809Y8093287D01*
X1123809Y8093287D02*
X1161904Y8131382D01*
X1161904Y8131382D02*
X1200000Y8207573D01*
X1200000Y8207573D02*
X1200000Y8283763D01*
X1200000Y8283763D02*
X1161904Y8359954D01*
X1161904Y8359954D02*
X1123809Y8398049D01*
X1123809Y8398049D02*
X1047619Y8436144D01*
X1047619Y8436144D02*
X857142Y8436144D01*
X857142Y8436144D02*
X742857Y8398049D01*
X399999Y7636144D02*
X399999Y8436144D01*
X399999Y8436144D02*
X209523Y8436144D01*
X209523Y8436144D02*
X95237Y8398049D01*
X95237Y8398049D02*
X19047Y8321859D01*
X19047Y8321859D02*
X-19047Y8245668D01*
X-19047Y8245668D02*
X-57143Y8093287D01*
X-57143Y8093287D02*
X-57143Y7979001D01*
X-57143Y7979001D02*
X-19047Y7826620D01*
X-19047Y7826620D02*
X19047Y7750430D01*
X19047Y7750430D02*
X95237Y7674240D01*
X95237Y7674240D02*
X209523Y7636144D01*
X209523Y7636144D02*
X399999Y7636144D01*
X-361904Y7864716D02*
X-742857Y7864716D01*
X-285714Y7636144D02*
X-552381Y8436144D01*
X-552381Y8436144D02*
X-819047Y7636144D01*
X16090476Y2136144D02*
X15557142Y1336144D01*
X15557142Y2136144D02*
X16090476Y1336144D01*
X15252380Y1336144D02*
X15252380Y2136144D01*
X14909524Y1564716D02*
X14528571Y1564716D01*
X14985714Y1336144D02*
X14719047Y2136144D01*
X14719047Y2136144D02*
X14452381Y1336144D01*
X14033333Y2136144D02*
X13880952Y2136144D01*
X13880952Y2136144D02*
X13804762Y2098049D01*
X13804762Y2098049D02*
X13728571Y2021859D01*
X13728571Y2021859D02*
X13690476Y1869478D01*
X13690476Y1869478D02*
X13690476Y1602811D01*
X13690476Y1602811D02*
X13728571Y1450430D01*
X13728571Y1450430D02*
X13804762Y1374240D01*
X13804762Y1374240D02*
X13880952Y1336144D01*
X13880952Y1336144D02*
X14033333Y1336144D01*
X14033333Y1336144D02*
X14109524Y1374240D01*
X14109524Y1374240D02*
X14185714Y1450430D01*
X14185714Y1450430D02*
X14223810Y1602811D01*
X14223810Y1602811D02*
X14223810Y1869478D01*
X14223810Y1869478D02*
X14185714Y2021859D01*
X14185714Y2021859D02*
X14109524Y2098049D01*
X14109524Y2098049D02*
X14033333Y2136144D01*
X12738095Y1869478D02*
X12738095Y1336144D01*
X12738095Y1793287D02*
X12700000Y1831382D01*
X12700000Y1831382D02*
X12623810Y1869478D01*
X12623810Y1869478D02*
X12509524Y1869478D01*
X12509524Y1869478D02*
X12433333Y1831382D01*
X12433333Y1831382D02*
X12395238Y1755192D01*
X12395238Y1755192D02*
X12395238Y1336144D01*
X11557142Y1336144D02*
X11823809Y1717097D01*
X12014285Y1336144D02*
X12014285Y2136144D01*
X12014285Y2136144D02*
X11709523Y2136144D01*
X11709523Y2136144D02*
X11633333Y2098049D01*
X11633333Y2098049D02*
X11595238Y2059954D01*
X11595238Y2059954D02*
X11557142Y1983763D01*
X11557142Y1983763D02*
X11557142Y1869478D01*
X11557142Y1869478D02*
X11595238Y1793287D01*
X11595238Y1793287D02*
X11633333Y1755192D01*
X11633333Y1755192D02*
X11709523Y1717097D01*
X11709523Y1717097D02*
X12014285Y1717097D01*
X10947619Y1755192D02*
X11214285Y1755192D01*
X11214285Y1336144D02*
X11214285Y2136144D01*
X11214285Y2136144D02*
X10833333Y2136144D01*
X10147619Y2136144D02*
X10528571Y2136144D01*
X10528571Y2136144D02*
X10566667Y1755192D01*
X10566667Y1755192D02*
X10528571Y1793287D01*
X10528571Y1793287D02*
X10452381Y1831382D01*
X10452381Y1831382D02*
X10261905Y1831382D01*
X10261905Y1831382D02*
X10185714Y1793287D01*
X10185714Y1793287D02*
X10147619Y1755192D01*
X10147619Y1755192D02*
X10109524Y1679001D01*
X10109524Y1679001D02*
X10109524Y1488525D01*
X10109524Y1488525D02*
X10147619Y1412335D01*
X10147619Y1412335D02*
X10185714Y1374240D01*
X10185714Y1374240D02*
X10261905Y1336144D01*
X10261905Y1336144D02*
X10452381Y1336144D01*
X10452381Y1336144D02*
X10528571Y1374240D01*
X10528571Y1374240D02*
X10566667Y1412335D01*
X9804762Y2059954D02*
X9766666Y2098049D01*
X9766666Y2098049D02*
X9690476Y2136144D01*
X9690476Y2136144D02*
X9500000Y2136144D01*
X9500000Y2136144D02*
X9423809Y2098049D01*
X9423809Y2098049D02*
X9385714Y2059954D01*
X9385714Y2059954D02*
X9347619Y1983763D01*
X9347619Y1983763D02*
X9347619Y1907573D01*
X9347619Y1907573D02*
X9385714Y1793287D01*
X9385714Y1793287D02*
X9842857Y1336144D01*
X9842857Y1336144D02*
X9347619Y1336144D01*
X8890476Y1793287D02*
X8966666Y1831382D01*
X8966666Y1831382D02*
X9004761Y1869478D01*
X9004761Y1869478D02*
X9042857Y1945668D01*
X9042857Y1945668D02*
X9042857Y1983763D01*
X9042857Y1983763D02*
X9004761Y2059954D01*
X9004761Y2059954D02*
X8966666Y2098049D01*
X8966666Y2098049D02*
X8890476Y2136144D01*
X8890476Y2136144D02*
X8738095Y2136144D01*
X8738095Y2136144D02*
X8661904Y2098049D01*
X8661904Y2098049D02*
X8623809Y2059954D01*
X8623809Y2059954D02*
X8585714Y1983763D01*
X8585714Y1983763D02*
X8585714Y1945668D01*
X8585714Y1945668D02*
X8623809Y1869478D01*
X8623809Y1869478D02*
X8661904Y1831382D01*
X8661904Y1831382D02*
X8738095Y1793287D01*
X8738095Y1793287D02*
X8890476Y1793287D01*
X8890476Y1793287D02*
X8966666Y1755192D01*
X8966666Y1755192D02*
X9004761Y1717097D01*
X9004761Y1717097D02*
X9042857Y1640906D01*
X9042857Y1640906D02*
X9042857Y1488525D01*
X9042857Y1488525D02*
X9004761Y1412335D01*
X9004761Y1412335D02*
X8966666Y1374240D01*
X8966666Y1374240D02*
X8890476Y1336144D01*
X8890476Y1336144D02*
X8738095Y1336144D01*
X8738095Y1336144D02*
X8661904Y1374240D01*
X8661904Y1374240D02*
X8623809Y1412335D01*
X8623809Y1412335D02*
X8585714Y1488525D01*
X8585714Y1488525D02*
X8585714Y1640906D01*
X8585714Y1640906D02*
X8623809Y1717097D01*
X8623809Y1717097D02*
X8661904Y1755192D01*
X8661904Y1755192D02*
X8738095Y1793287D01*
X7899999Y1869478D02*
X7899999Y1336144D01*
X8090475Y2174240D02*
X8280952Y1602811D01*
X8280952Y1602811D02*
X7785713Y1602811D01*
X7328570Y2136144D02*
X7252380Y2136144D01*
X7252380Y2136144D02*
X7176189Y2098049D01*
X7176189Y2098049D02*
X7138094Y2059954D01*
X7138094Y2059954D02*
X7099999Y1983763D01*
X7099999Y1983763D02*
X7061904Y1831382D01*
X7061904Y1831382D02*
X7061904Y1640906D01*
X7061904Y1640906D02*
X7099999Y1488525D01*
X7099999Y1488525D02*
X7138094Y1412335D01*
X7138094Y1412335D02*
X7176189Y1374240D01*
X7176189Y1374240D02*
X7252380Y1336144D01*
X7252380Y1336144D02*
X7328570Y1336144D01*
X7328570Y1336144D02*
X7404761Y1374240D01*
X7404761Y1374240D02*
X7442856Y1412335D01*
X7442856Y1412335D02*
X7480951Y1488525D01*
X7480951Y1488525D02*
X7519047Y1640906D01*
X7519047Y1640906D02*
X7519047Y1831382D01*
X7519047Y1831382D02*
X7480951Y1983763D01*
X7480951Y1983763D02*
X7442856Y2059954D01*
X7442856Y2059954D02*
X7404761Y2098049D01*
X7404761Y2098049D02*
X7328570Y2136144D01*
X6147618Y1374240D02*
X6033332Y1336144D01*
X6033332Y1336144D02*
X5842856Y1336144D01*
X5842856Y1336144D02*
X5766665Y1374240D01*
X5766665Y1374240D02*
X5728570Y1412335D01*
X5728570Y1412335D02*
X5690475Y1488525D01*
X5690475Y1488525D02*
X5690475Y1564716D01*
X5690475Y1564716D02*
X5728570Y1640906D01*
X5728570Y1640906D02*
X5766665Y1679001D01*
X5766665Y1679001D02*
X5842856Y1717097D01*
X5842856Y1717097D02*
X5995237Y1755192D01*
X5995237Y1755192D02*
X6071427Y1793287D01*
X6071427Y1793287D02*
X6109522Y1831382D01*
X6109522Y1831382D02*
X6147618Y1907573D01*
X6147618Y1907573D02*
X6147618Y1983763D01*
X6147618Y1983763D02*
X6109522Y2059954D01*
X6109522Y2059954D02*
X6071427Y2098049D01*
X6071427Y2098049D02*
X5995237Y2136144D01*
X5995237Y2136144D02*
X5804760Y2136144D01*
X5804760Y2136144D02*
X5690475Y2098049D01*
X5042855Y1374240D02*
X5119046Y1336144D01*
X5119046Y1336144D02*
X5271427Y1336144D01*
X5271427Y1336144D02*
X5347617Y1374240D01*
X5347617Y1374240D02*
X5385713Y1450430D01*
X5385713Y1450430D02*
X5385713Y1755192D01*
X5385713Y1755192D02*
X5347617Y1831382D01*
X5347617Y1831382D02*
X5271427Y1869478D01*
X5271427Y1869478D02*
X5119046Y1869478D01*
X5119046Y1869478D02*
X5042855Y1831382D01*
X5042855Y1831382D02*
X5004760Y1755192D01*
X5004760Y1755192D02*
X5004760Y1679001D01*
X5004760Y1679001D02*
X5385713Y1602811D01*
X4661903Y1869478D02*
X4661903Y1336144D01*
X4661903Y1793287D02*
X4623808Y1831382D01*
X4623808Y1831382D02*
X4547618Y1869478D01*
X4547618Y1869478D02*
X4433332Y1869478D01*
X4433332Y1869478D02*
X4357141Y1831382D01*
X4357141Y1831382D02*
X4319046Y1755192D01*
X4319046Y1755192D02*
X4319046Y1336144D01*
X3976189Y1374240D02*
X3899998Y1336144D01*
X3899998Y1336144D02*
X3747617Y1336144D01*
X3747617Y1336144D02*
X3671427Y1374240D01*
X3671427Y1374240D02*
X3633331Y1450430D01*
X3633331Y1450430D02*
X3633331Y1488525D01*
X3633331Y1488525D02*
X3671427Y1564716D01*
X3671427Y1564716D02*
X3747617Y1602811D01*
X3747617Y1602811D02*
X3861903Y1602811D01*
X3861903Y1602811D02*
X3938093Y1640906D01*
X3938093Y1640906D02*
X3976189Y1717097D01*
X3976189Y1717097D02*
X3976189Y1755192D01*
X3976189Y1755192D02*
X3938093Y1831382D01*
X3938093Y1831382D02*
X3861903Y1869478D01*
X3861903Y1869478D02*
X3747617Y1869478D01*
X3747617Y1869478D02*
X3671427Y1831382D01*
X2985712Y1374240D02*
X3061903Y1336144D01*
X3061903Y1336144D02*
X3214284Y1336144D01*
X3214284Y1336144D02*
X3290474Y1374240D01*
X3290474Y1374240D02*
X3328570Y1450430D01*
X3328570Y1450430D02*
X3328570Y1755192D01*
X3328570Y1755192D02*
X3290474Y1831382D01*
X3290474Y1831382D02*
X3214284Y1869478D01*
X3214284Y1869478D02*
X3061903Y1869478D01*
X3061903Y1869478D02*
X2985712Y1831382D01*
X2985712Y1831382D02*
X2947617Y1755192D01*
X2947617Y1755192D02*
X2947617Y1679001D01*
X2947617Y1679001D02*
X3328570Y1602811D01*
D11*
X15971429Y2890662D02*
X15971429Y3790662D01*
X15971429Y3790662D02*
X15757143Y3790662D01*
X15757143Y3790662D02*
X15628572Y3747805D01*
X15628572Y3747805D02*
X15542857Y3662091D01*
X15542857Y3662091D02*
X15500000Y3576377D01*
X15500000Y3576377D02*
X15457143Y3404948D01*
X15457143Y3404948D02*
X15457143Y3276377D01*
X15457143Y3276377D02*
X15500000Y3104948D01*
X15500000Y3104948D02*
X15542857Y3019234D01*
X15542857Y3019234D02*
X15628572Y2933520D01*
X15628572Y2933520D02*
X15757143Y2890662D01*
X15757143Y2890662D02*
X15971429Y2890662D01*
X14942857Y2890662D02*
X15028572Y2933520D01*
X15028572Y2933520D02*
X15071429Y2976377D01*
X15071429Y2976377D02*
X15114286Y3062091D01*
X15114286Y3062091D02*
X15114286Y3319234D01*
X15114286Y3319234D02*
X15071429Y3404948D01*
X15071429Y3404948D02*
X15028572Y3447805D01*
X15028572Y3447805D02*
X14942857Y3490662D01*
X14942857Y3490662D02*
X14814286Y3490662D01*
X14814286Y3490662D02*
X14728572Y3447805D01*
X14728572Y3447805D02*
X14685715Y3404948D01*
X14685715Y3404948D02*
X14642857Y3319234D01*
X14642857Y3319234D02*
X14642857Y3062091D01*
X14642857Y3062091D02*
X14685715Y2976377D01*
X14685715Y2976377D02*
X14728572Y2933520D01*
X14728572Y2933520D02*
X14814286Y2890662D01*
X14814286Y2890662D02*
X14942857Y2890662D01*
X13871429Y3490662D02*
X13871429Y2762091D01*
X13871429Y2762091D02*
X13914286Y2676377D01*
X13914286Y2676377D02*
X13957143Y2633520D01*
X13957143Y2633520D02*
X14042857Y2590662D01*
X14042857Y2590662D02*
X14171429Y2590662D01*
X14171429Y2590662D02*
X14257143Y2633520D01*
X13871429Y2933520D02*
X13957143Y2890662D01*
X13957143Y2890662D02*
X14128571Y2890662D01*
X14128571Y2890662D02*
X14214286Y2933520D01*
X14214286Y2933520D02*
X14257143Y2976377D01*
X14257143Y2976377D02*
X14300000Y3062091D01*
X14300000Y3062091D02*
X14300000Y3319234D01*
X14300000Y3319234D02*
X14257143Y3404948D01*
X14257143Y3404948D02*
X14214286Y3447805D01*
X14214286Y3447805D02*
X14128571Y3490662D01*
X14128571Y3490662D02*
X13957143Y3490662D01*
X13957143Y3490662D02*
X13871429Y3447805D01*
X13442857Y2890662D02*
X13442857Y3790662D01*
X13442857Y3790662D02*
X13142857Y3147805D01*
X13142857Y3147805D02*
X12842857Y3790662D01*
X12842857Y3790662D02*
X12842857Y2890662D01*
X12285714Y2890662D02*
X12371429Y2933520D01*
X12371429Y2933520D02*
X12414286Y2976377D01*
X12414286Y2976377D02*
X12457143Y3062091D01*
X12457143Y3062091D02*
X12457143Y3319234D01*
X12457143Y3319234D02*
X12414286Y3404948D01*
X12414286Y3404948D02*
X12371429Y3447805D01*
X12371429Y3447805D02*
X12285714Y3490662D01*
X12285714Y3490662D02*
X12157143Y3490662D01*
X12157143Y3490662D02*
X12071429Y3447805D01*
X12071429Y3447805D02*
X12028572Y3404948D01*
X12028572Y3404948D02*
X11985714Y3319234D01*
X11985714Y3319234D02*
X11985714Y3062091D01*
X11985714Y3062091D02*
X12028572Y2976377D01*
X12028572Y2976377D02*
X12071429Y2933520D01*
X12071429Y2933520D02*
X12157143Y2890662D01*
X12157143Y2890662D02*
X12285714Y2890662D01*
X11471428Y2890662D02*
X11557143Y2933520D01*
X11557143Y2933520D02*
X11600000Y2976377D01*
X11600000Y2976377D02*
X11642857Y3062091D01*
X11642857Y3062091D02*
X11642857Y3319234D01*
X11642857Y3319234D02*
X11600000Y3404948D01*
X11600000Y3404948D02*
X11557143Y3447805D01*
X11557143Y3447805D02*
X11471428Y3490662D01*
X11471428Y3490662D02*
X11342857Y3490662D01*
X11342857Y3490662D02*
X11257143Y3447805D01*
X11257143Y3447805D02*
X11214286Y3404948D01*
X11214286Y3404948D02*
X11171428Y3319234D01*
X11171428Y3319234D02*
X11171428Y3062091D01*
X11171428Y3062091D02*
X11214286Y2976377D01*
X11214286Y2976377D02*
X11257143Y2933520D01*
X11257143Y2933520D02*
X11342857Y2890662D01*
X11342857Y2890662D02*
X11471428Y2890662D01*
X10400000Y2890662D02*
X10400000Y3790662D01*
X10400000Y2933520D02*
X10485714Y2890662D01*
X10485714Y2890662D02*
X10657142Y2890662D01*
X10657142Y2890662D02*
X10742857Y2933520D01*
X10742857Y2933520D02*
X10785714Y2976377D01*
X10785714Y2976377D02*
X10828571Y3062091D01*
X10828571Y3062091D02*
X10828571Y3319234D01*
X10828571Y3319234D02*
X10785714Y3404948D01*
X10785714Y3404948D02*
X10742857Y3447805D01*
X10742857Y3447805D02*
X10657142Y3490662D01*
X10657142Y3490662D02*
X10485714Y3490662D01*
X10485714Y3490662D02*
X10400000Y3447805D01*
X8900000Y2933520D02*
X8985714Y2890662D01*
X8985714Y2890662D02*
X9157142Y2890662D01*
X9157142Y2890662D02*
X9242857Y2933520D01*
X9242857Y2933520D02*
X9285714Y2976377D01*
X9285714Y2976377D02*
X9328571Y3062091D01*
X9328571Y3062091D02*
X9328571Y3319234D01*
X9328571Y3319234D02*
X9285714Y3404948D01*
X9285714Y3404948D02*
X9242857Y3447805D01*
X9242857Y3447805D02*
X9157142Y3490662D01*
X9157142Y3490662D02*
X8985714Y3490662D01*
X8985714Y3490662D02*
X8900000Y3447805D01*
X8128571Y2890662D02*
X8128571Y3362091D01*
X8128571Y3362091D02*
X8171428Y3447805D01*
X8171428Y3447805D02*
X8257142Y3490662D01*
X8257142Y3490662D02*
X8428571Y3490662D01*
X8428571Y3490662D02*
X8514285Y3447805D01*
X8128571Y2933520D02*
X8214285Y2890662D01*
X8214285Y2890662D02*
X8428571Y2890662D01*
X8428571Y2890662D02*
X8514285Y2933520D01*
X8514285Y2933520D02*
X8557142Y3019234D01*
X8557142Y3019234D02*
X8557142Y3104948D01*
X8557142Y3104948D02*
X8514285Y3190662D01*
X8514285Y3190662D02*
X8428571Y3233520D01*
X8428571Y3233520D02*
X8214285Y3233520D01*
X8214285Y3233520D02*
X8128571Y3276377D01*
X7699999Y2890662D02*
X7699999Y3490662D01*
X7699999Y3319234D02*
X7657142Y3404948D01*
X7657142Y3404948D02*
X7614285Y3447805D01*
X7614285Y3447805D02*
X7528570Y3490662D01*
X7528570Y3490662D02*
X7442856Y3490662D01*
X7142856Y2890662D02*
X7142856Y3490662D01*
X7142856Y3319234D02*
X7099999Y3404948D01*
X7099999Y3404948D02*
X7057142Y3447805D01*
X7057142Y3447805D02*
X6971427Y3490662D01*
X6971427Y3490662D02*
X6885713Y3490662D01*
X6585713Y2890662D02*
X6585713Y3490662D01*
X6585713Y3790662D02*
X6628570Y3747805D01*
X6628570Y3747805D02*
X6585713Y3704948D01*
X6585713Y3704948D02*
X6542856Y3747805D01*
X6542856Y3747805D02*
X6585713Y3790662D01*
X6585713Y3790662D02*
X6585713Y3704948D01*
X5814285Y2933520D02*
X5899999Y2890662D01*
X5899999Y2890662D02*
X6071428Y2890662D01*
X6071428Y2890662D02*
X6157142Y2933520D01*
X6157142Y2933520D02*
X6199999Y3019234D01*
X6199999Y3019234D02*
X6199999Y3362091D01*
X6199999Y3362091D02*
X6157142Y3447805D01*
X6157142Y3447805D02*
X6071428Y3490662D01*
X6071428Y3490662D02*
X5899999Y3490662D01*
X5899999Y3490662D02*
X5814285Y3447805D01*
X5814285Y3447805D02*
X5771428Y3362091D01*
X5771428Y3362091D02*
X5771428Y3276377D01*
X5771428Y3276377D02*
X6199999Y3190662D01*
X5385713Y2890662D02*
X5385713Y3490662D01*
X5385713Y3319234D02*
X5342856Y3404948D01*
X5342856Y3404948D02*
X5299999Y3447805D01*
X5299999Y3447805D02*
X5214284Y3490662D01*
X5214284Y3490662D02*
X5128570Y3490662D01*
X4228570Y3490662D02*
X4014284Y2890662D01*
X4014284Y2890662D02*
X3799999Y3490662D01*
X2985713Y2890662D02*
X3499999Y2890662D01*
X3242856Y2890662D02*
X3242856Y3790662D01*
X3242856Y3790662D02*
X3328570Y3662091D01*
X3328570Y3662091D02*
X3414285Y3576377D01*
X3414285Y3576377D02*
X3499999Y3533520D01*
M02*
